# xmcd
#
# Track frame offsets:
# 150
# 16970
# 29077
# 46265
# 57855
# 73975
# 87117
# 100995
# 111705
# 130765
# 148147
# 160120
#
# Disc length: 2273 seconds
#
#
# Revision: 0
# Processed by: cddbd v1.5.2PL0 Copyright (c) Steve Scherf et al.
# Submitted via: FreeRIP 2.951 
#
DISCID=ad08df0c
DTITLE=Western swingers  - Cowboy-line
DYEAR=1900
DGENRE=Country
TTITLE0=Cowboy line
TTITLE1=Mgbrock
TTITLE2=krigsseileren
TTITLE3=petter og skattefuten
TTITLE4=kun hvis du er min
TTITLE5=inger lill
TTITLE6=lucky luke
TTITLE7=din drømmekvinne
TTITLE8=rastløs
TTITLE9=drøm i 3/4 takt
TTITLE10=hvor hen er du nå
TTITLE11=fra start og til mål
EXTD=
EXTT0=
EXTT1=
EXTT2=
EXTT3=
EXTT4=
EXTT5=
EXTT6=
EXTT7=
EXTT8=
EXTT9=
EXTT10=
EXTT11=
PLAYORDER=
